<svg xmlns="http://www.w3.org/2000/svg" viewBox="0 0 800 800" width="800" height="800" role="img"> <defs> <linearGradient id="scr-batteriepoche5000rose" x1="0" y1="0" x2="1" y2="1"> <stop offset="0%" stop-color="#22d3ee"/> <stop offset="55%" stop-color="#ec4899"/> <stop offset="100%" stop-color="#22d3ee"/> </linearGradient> <radialGradient id="orb-batteriepoche5000rose" cx="50%" cy="45%" r="55%"> <stop offset="0%" stop-color="#22d3ee" stop-opacity="0.95"/> <stop offset="60%" stop-color="#ec4899" stop-opacity="0.55"/> <stop offset="100%" stop-color="#22d3ee" stop-opacity="0"/> </radialGradient> <linearGradient id="body-batteriepoche5000rose" x1="0" y1="0" x2="1" y2="1"> <stop offset="0%" stop-color="#ffffff" stop-opacity="0.22"/> <stop offset="45%" stop-color="#ffffff" stop-opacity="0.04"/> <stop offset="100%" stop-color="#000000" stop-opacity="0.22"/> </linearGradient> </defs> <g> <ellipse cx="400" cy="700" rx="170" ry="16" fill="#000" opacity="0.14"/> <rect x="226" y="168" width="348" height="502" rx="62" fill="#ec4899"/> <rect x="226" y="168" width="348" height="502" rx="62" fill="url(#body-batteriepoche5000rose)"/> <rect x="256" y="198" width="288" height="200" rx="40" fill="#000" opacity="0.22"/> <text x="400" y="322" text-anchor="middle" font-family="Inter,Segoe UI,sans-serif" font-size="86" font-weight="700" fill="#22d3ee" opacity="0.9">20K</text> <g transform="translate(292 456)"> <rect x="0" y="0" width="46" height="14" rx="7" fill="#22d3ee"/> <rect x="58" y="0" width="46" height="14" rx="7" fill="#22d3ee"/> <rect x="116" y="0" width="46" height="14" rx="7" fill="#22d3ee" opacity="0.45"/> <rect x="174" y="0" width="46" height="14" rx="7" fill="#22d3ee" opacity="0.2"/> </g> <rect x="330" y="540" width="140" height="38" rx="19" fill="#000" opacity="0.35"/> <rect x="344" y="552" width="112" height="14" rx="7" fill="#22d3ee" opacity="0.7"/> </g></svg>