<svg xmlns="http://www.w3.org/2000/svg" viewBox="0 0 800 800" width="800" height="800" role="img"> <defs> <linearGradient id="scr-boxandroidtv4k" x1="0" y1="0" x2="1" y2="1"> <stop offset="0%" stop-color="#22d3ee"/> <stop offset="55%" stop-color="#1f2937"/> <stop offset="100%" stop-color="#22d3ee"/> </linearGradient> <radialGradient id="orb-boxandroidtv4k" cx="50%" cy="45%" r="55%"> <stop offset="0%" stop-color="#22d3ee" stop-opacity="0.95"/> <stop offset="60%" stop-color="#1f2937" stop-opacity="0.55"/> <stop offset="100%" stop-color="#22d3ee" stop-opacity="0"/> </radialGradient> <linearGradient id="body-boxandroidtv4k" x1="0" y1="0" x2="1" y2="1"> <stop offset="0%" stop-color="#ffffff" stop-opacity="0.22"/> <stop offset="45%" stop-color="#ffffff" stop-opacity="0.04"/> <stop offset="100%" stop-color="#000000" stop-opacity="0.22"/> </linearGradient> </defs> <g> <ellipse cx="400" cy="616" rx="210" ry="18" fill="#000" opacity="0.14"/> <rect x="176" y="356" width="448" height="232" rx="40" fill="#1f2937"/> <rect x="176" y="356" width="448" height="232" rx="40" fill="url(#body-boxandroidtv4k)"/> <rect x="176" y="356" width="448" height="18" rx="9" fill="#fff" opacity="0.10"/> <circle cx="238" cy="546" r="13" fill="#22d3ee"/> <circle cx="238" cy="546" r="24" fill="#22d3ee" opacity="0.22"/> <g transform="translate(316 408)"> <rect x="0" y="0" width="170" height="96" rx="18" fill="#000" opacity="0.28"/> <path d="M42 26 h86 M42 48 h86 M42 70 h56" stroke="#22d3ee" stroke-width="10" stroke-linecap="round" opacity="0.75"/> </g> <g transform="translate(556 150)"> <rect x="0" y="0" width="96" height="248" rx="34" fill="#1f2937"/> <rect x="0" y="0" width="96" height="248" rx="34" fill="url(#body-boxandroidtv4k)"/> <circle cx="48" cy="62" r="26" fill="#000" opacity="0.3"/> <circle cx="48" cy="62" r="11" fill="#22d3ee" opacity="0.8"/> <rect x="26" y="118" width="44" height="12" rx="6" fill="#22d3ee" opacity="0.55"/> <rect x="26" y="150" width="44" height="12" rx="6" fill="#22d3ee" opacity="0.35"/> <rect x="26" y="182" width="44" height="12" rx="6" fill="#22d3ee" opacity="0.2"/> </g> </g></svg>