<svg xmlns="http://www.w3.org/2000/svg" viewBox="0 0 800 800" width="800" height="800" role="img"> <defs> <linearGradient id="scr-cableusbctresse2m" x1="0" y1="0" x2="1" y2="1"> <stop offset="0%" stop-color="#22d3ee"/> <stop offset="55%" stop-color="#111827"/> <stop offset="100%" stop-color="#22d3ee"/> </linearGradient> <radialGradient id="orb-cableusbctresse2m" cx="50%" cy="45%" r="55%"> <stop offset="0%" stop-color="#22d3ee" stop-opacity="0.95"/> <stop offset="60%" stop-color="#111827" stop-opacity="0.55"/> <stop offset="100%" stop-color="#22d3ee" stop-opacity="0"/> </radialGradient> <linearGradient id="body-cableusbctresse2m" x1="0" y1="0" x2="1" y2="1"> <stop offset="0%" stop-color="#ffffff" stop-opacity="0.22"/> <stop offset="45%" stop-color="#ffffff" stop-opacity="0.04"/> <stop offset="100%" stop-color="#000000" stop-opacity="0.22"/> </linearGradient> </defs> <g> <ellipse cx="400" cy="716" rx="180" ry="16" fill="#000" opacity="0.12"/> <path d="M228 196 C 228 430, 572 350, 572 592" fill="none" stroke="#111827" stroke-width="30" stroke-linecap="round"/> <path d="M228 196 C 228 430, 572 350, 572 592" fill="none" stroke="#22d3ee" stroke-width="10" stroke-linecap="round" opacity="0.45"/> <g transform="translate(184 96)"> <rect x="0" y="0" width="88" height="116" rx="20" fill="#111827"/> <rect x="0" y="0" width="88" height="116" rx="20" fill="url(#body-cableusbctresse2m)"/> <rect x="20" y="26" width="48" height="20" rx="8" fill="#22d3ee" opacity="0.8"/> </g> <g transform="translate(528 588)"> <rect x="0" y="0" width="88" height="104" rx="30" fill="#111827"/> <rect x="0" y="0" width="88" height="104" rx="30" fill="url(#body-cableusbctresse2m)"/> <rect x="22" y="58" width="44" height="16" rx="8" fill="#22d3ee" opacity="0.8"/> </g> </g></svg>