<svg xmlns="http://www.w3.org/2000/svg" viewBox="0 0 800 800" width="800" height="800" role="img"> <defs> <linearGradient id="scr-coquesiliconeiphone15rouge" x1="0" y1="0" x2="1" y2="1"> <stop offset="0%" stop-color="#94a3b8"/> <stop offset="55%" stop-color="#dc2626"/> <stop offset="100%" stop-color="#94a3b8"/> </linearGradient> <radialGradient id="orb-coquesiliconeiphone15rouge" cx="50%" cy="45%" r="55%"> <stop offset="0%" stop-color="#94a3b8" stop-opacity="0.95"/> <stop offset="60%" stop-color="#dc2626" stop-opacity="0.55"/> <stop offset="100%" stop-color="#94a3b8" stop-opacity="0"/> </radialGradient> <linearGradient id="body-coquesiliconeiphone15rouge" x1="0" y1="0" x2="1" y2="1"> <stop offset="0%" stop-color="#ffffff" stop-opacity="0.22"/> <stop offset="45%" stop-color="#ffffff" stop-opacity="0.04"/> <stop offset="100%" stop-color="#000000" stop-opacity="0.22"/> </linearGradient> </defs> <g> <ellipse cx="400" cy="742" rx="150" ry="16" fill="#000" opacity="0.14"/> <rect x="236" y="86" width="328" height="628" rx="72" fill="#94a3b8"/> <rect x="236" y="86" width="328" height="628" rx="72" fill="url(#body-coquesiliconeiphone15rouge)"/> <rect x="258" y="108" width="284" height="584" rx="56" fill="#000" opacity="0.16"/> <rect x="272" y="122" width="256" height="556" rx="46" fill="#94a3b8"/> <g transform="translate(296 148)"> <rect x="0" y="0" width="164" height="164" rx="42" fill="#000" opacity="0.28"/> <circle cx="52" cy="52" r="30" fill="#dc2626"/><circle cx="52" cy="52" r="13" fill="#94a3b8" opacity="0.7"/> <circle cx="118" cy="52" r="30" fill="#dc2626"/><circle cx="118" cy="52" r="13" fill="#94a3b8" opacity="0.7"/> <circle cx="52" cy="118" r="30" fill="#dc2626"/><circle cx="52" cy="118" r="13" fill="#94a3b8" opacity="0.7"/> <circle cx="120" cy="120" r="14" fill="#dc2626" opacity="0.8"/> </g> <rect x="566" y="238" width="14" height="76" rx="7" fill="#94a3b8"/> <rect x="566" y="336" width="14" height="52" rx="7" fill="#94a3b8"/> </g></svg>