<svg xmlns="http://www.w3.org/2000/svg" viewBox="0 0 800 800" width="800" height="800" role="img"> <defs> <linearGradient id="scr-nvidiartx4080super" x1="0" y1="0" x2="1" y2="1"> <stop offset="0%" stop-color="#34d399"/> <stop offset="55%" stop-color="#1f2937"/> <stop offset="100%" stop-color="#34d399"/> </linearGradient> <radialGradient id="orb-nvidiartx4080super" cx="50%" cy="45%" r="55%"> <stop offset="0%" stop-color="#34d399" stop-opacity="0.95"/> <stop offset="60%" stop-color="#1f2937" stop-opacity="0.55"/> <stop offset="100%" stop-color="#34d399" stop-opacity="0"/> </radialGradient> <linearGradient id="body-nvidiartx4080super" x1="0" y1="0" x2="1" y2="1"> <stop offset="0%" stop-color="#ffffff" stop-opacity="0.22"/> <stop offset="45%" stop-color="#ffffff" stop-opacity="0.04"/> <stop offset="100%" stop-color="#000000" stop-opacity="0.22"/> </linearGradient> </defs> <g> <ellipse cx="400" cy="628" rx="240" ry="18" fill="#000" opacity="0.14"/> <rect x="80" y="216" width="640" height="304" rx="26" fill="#1f2937"/> <rect x="80" y="216" width="640" height="304" rx="26" fill="url(#body-nvidiartx4080super)"/> <circle cx="248" cy="368" r="104" fill="#0a0c11"/> <circle cx="552" cy="368" r="104" fill="#0a0c11"/> <ellipse cx="302.0" cy="368.0" rx="34" ry="14" transform="rotate(0 302.0 368.0)" fill="#34d399" opacity="0.5"/><ellipse cx="289.4" cy="402.7" rx="34" ry="14" transform="rotate(40 289.4 402.7)" fill="#34d399" opacity="0.5"/><ellipse cx="257.4" cy="421.2" rx="34" ry="14" transform="rotate(80 257.4 421.2)" fill="#34d399" opacity="0.5"/><ellipse cx="221.0" cy="414.8" rx="34" ry="14" transform="rotate(120 221.0 414.8)" fill="#34d399" opacity="0.5"/><ellipse cx="197.3" cy="386.5" rx="34" ry="14" transform="rotate(160 197.3 386.5)" fill="#34d399" opacity="0.5"/><ellipse cx="197.3" cy="349.5" rx="34" ry="14" transform="rotate(200 197.3 349.5)" fill="#34d399" opacity="0.5"/><ellipse cx="221.0" cy="321.2" rx="34" ry="14" transform="rotate(240 221.0 321.2)" fill="#34d399" opacity="0.5"/><ellipse cx="257.4" cy="314.8" rx="34" ry="14" transform="rotate(280 257.4 314.8)" fill="#34d399" opacity="0.5"/><ellipse cx="289.4" cy="333.3" rx="34" ry="14" transform="rotate(320 289.4 333.3)" fill="#34d399" opacity="0.5"/><ellipse cx="606.0" cy="368.0" rx="34" ry="14" transform="rotate(0 606.0 368.0)" fill="#34d399" opacity="0.5"/><ellipse cx="593.4" cy="402.7" rx="34" ry="14" transform="rotate(40 593.4 402.7)" fill="#34d399" opacity="0.5"/><ellipse cx="561.4" cy="421.2" rx="34" ry="14" transform="rotate(80 561.4 421.2)" fill="#34d399" opacity="0.5"/><ellipse cx="525.0" cy="414.8" rx="34" ry="14" transform="rotate(120 525.0 414.8)" fill="#34d399" opacity="0.5"/><ellipse cx="501.3" cy="386.5" rx="34" ry="14" transform="rotate(160 501.3 386.5)" fill="#34d399" opacity="0.5"/><ellipse cx="501.3" cy="349.5" rx="34" ry="14" transform="rotate(200 501.3 349.5)" fill="#34d399" opacity="0.5"/><ellipse cx="525.0" cy="321.2" rx="34" ry="14" transform="rotate(240 525.0 321.2)" fill="#34d399" opacity="0.5"/><ellipse cx="561.4" cy="314.8" rx="34" ry="14" transform="rotate(280 561.4 314.8)" fill="#34d399" opacity="0.5"/><ellipse cx="593.4" cy="333.3" rx="34" ry="14" transform="rotate(320 593.4 333.3)" fill="#34d399" opacity="0.5"/> <circle cx="248" cy="368" r="26" fill="#34d399"/><circle cx="552" cy="368" r="26" fill="#34d399"/> <rect x="80" y="520" width="640" height="26" rx="8" fill="#1f2937" opacity="0.85"/> <rect x="300" y="546" width="200" height="26" rx="4" fill="#d4a017" opacity="0.8"/> </g></svg>